# xmcd
#
# Track frame offsets: 
#        150
#        8127
#        25575
#        45779
#        63975
#        80037
#        91684
#        108734
#        138468
#        155196
#        174634
#        200312
#        220776
#        236907
#        253961
#        271036
#        293732
#        312576
#
# Disc length: 4620 seconds
#
# Revision: 0
# Processed by: cddbd v1.5.2PL0 Copyright (c) Steve Scherf et al.
# Submitted via: ExactAudioCopyFreeDBPlugin 1.0
#
DISCID=fc120a12
DTITLE=74 Minutes Collectif - Persévère
DYEAR=2010
DGENRE=Hip-Hop
TTITLE0=DJ Tiny Tim - Intro
TTITLE1=Kasty, Poupy, AK-47 and ATS - Fonce dedans
TTITLE2=Kasty, Poupy and ATS - La caravane passe feat. Nellio
TTITLE3=Poupy, Kasty and AK-47 - Hors de portée feat. Nellio
TTITLE4=Kasty, Poupy and AK-47 - Ca sert à rien
TTITLE5=Poupy and ATS - Et basta!
TTITLE6=ATS, Kasty and Poupy - Persévère feat. Nellio
TTITLE7=Kenny Silver, Kesta, AKS, Poupy, Kasty, Nabis and Oxyde2Bor - So
TTITLE7=close together feat. Particules Liées and SAJ
TTITLE8=Kasty, Poupy and ATS - Paradis artificiel feat. Nellio
TTITLE9=Poupy, ATS and AK-47 - Tempête de sable feat. Nellio
TTITLE10=Nellio, Ludo, Meda, Vinz, Poupy, ATS, AK-47 and Kasty - Spirale
TTITLE10=infernale feat. K-Trième Dimension and 74 Musique Sombre
TTITLE11=Poupy, AK-47, ATS and Kasty - Combat contre soi-même
TTITLE12=Kasty - Flippant d'faire des mômes
TTITLE13=AK-47, ATS and Poupy - Reste sur tes gardes feat. Nellio
TTITLE14=ATS - Mal de tête
TTITLE15=ATS, AK-47, Kasty and Poupy - Solitude
TTITLE16=Poupy, Kasty, AK-47 and ATS - Mélomane
TTITLE17=Meda, Fata, Ludo, Nellio, Poupy,Kasty, ATS and AK-47 - La derni
TTITLE17=ère page feat. 74 Musique Sombre and K-Trième Dimension
EXTD=
EXTT0=
EXTT1=
EXTT2=
EXTT3=
EXTT4=
EXTT5=
EXTT6=
EXTT7=
EXTT8=
EXTT9=
EXTT10=
EXTT11=
EXTT12=
EXTT13=
EXTT14=
EXTT15=
EXTT16=
EXTT17=
PLAYORDER=
